Coordinates
version=1
nRows=11
nColumns=63
inDegrees=yes

Units are S.I. units (second, meters, Newtons, ...)
If the header above contains a line with 'inDegrees', this indicates whether rotational values are in degrees (yes) or radians (no).

endheader
time	pelvis_tilt	pelvis_list	pelvis_rotation	pelvis_tx	pelvis_ty	pelvis_tz	hip_flexion_r	hip_adduction_r	hip_rotation_r	knee_angle_r	knee_angle_r_beta	ankle_angle_r	subtalar_angle_r	mtp_angle_r	hip_flexion_l	hip_adduction_l	hip_rotation_l	knee_angle_l	knee_angle_l_beta	ankle_angle_l	subtalar_angle_l	mtp_angle_l	L5_S1_Flex_Ext	L5_S1_Lat_Bending	L5_S1_axial_rotation	L4_L5_Flex_Ext	L4_L5_Lat_Bending	L4_L5_axial_rotation	L3_L4_Flex_Ext	L3_L4_Lat_Bending	L3_L4_axial_rotation	L2_L3_Flex_Ext	L2_L3_Lat_Bending	L2_L3_axial_rotation	L1_L2_Flex_Ext	L1_L2_Lat_Bending	L1_L2_axial_rotation	L1_T12_Flex_Ext	L1_T12_Lat_Bending	L1_T12_axial_rotation	Abs_r3	Abs_r2	Abs_r1	Abs_t1	Abs_t2	neck_flexion	neck_bending	neck_rotation	arm_flex_r	arm_add_r	arm_rot_r	elbow_flex_r	pro_sup_r	wrist_flex_r	wrist_dev_r	arm_flex_l	arm_add_l	arm_rot_l	elbow_flex_l	pro_sup_l	wrist_flex_l	wrist_dev_l
      0.78431373	      7.99137604	     -5.12484459	     96.22247629	      0.45460862	      0.77646369	      0.69055003	      0.54591093	      3.25387000	      2.20921647	      0.44090175	      0.00769519	     19.47669529	     -4.50608503	      0.00000000	      4.73643154	     -3.48246354	     20.24982783	      6.18414967	      0.10793377	     23.48321292	     -9.06000938	      0.00000000	      0.14213460	      0.43769681	      0.40523189	      0.26395817	      0.58213676	      0.43055888	      0.23351294	      1.06421602	      0.43055888	      0.16244564	      1.06421602	      0.35457790	      0.13198619	      0.89255133	      0.32925091	      0.08121571	      0.67799236	      0.30392391	      1.01525325	      4.95131384	      2.25377818	      0.00000000	      0.00000000	     25.59372166	     -5.25295674	    -16.11137877	     -2.98377104	    -21.79088480	     14.01858362	     79.11575226	     78.29046224	     -0.20246649	      0.60359279	     16.22179697	    -17.25223959	     40.88835841	     63.57428615	     72.41008893	    -10.23602175	    -10.65277988
      0.80392157	      7.70362409	     -5.22631352	     96.04778609	      0.45495798	      0.77672445	      0.68926107	      0.54917424	      2.95731406	      2.48829894	      0.50263814	      0.00877269	     19.16657758	     -4.51757952	      0.00000000	      5.18766990	     -3.05516280	     19.54272949	      7.14709067	      0.12474026	     23.85996714	     -9.05405855	      0.00000000	      0.14078031	      0.40332118	      0.44271302	      0.26144311	      0.53641716	      0.47038258	      0.23128797	      0.98063511	      0.47038258	      0.16089782	      0.98063511	      0.38737389	      0.13072860	      0.82245254	      0.35970433	      0.08044187	      0.62474450	      0.33203477	      1.00557968	      4.56244981	      2.46223701	      0.00000000	      0.00000000	     25.88358271	     -5.07123120	    -16.20479244	     -3.19662422	    -22.45483551	     12.25595456	     81.79229352	     78.92203811	     -0.06487466	      0.10975935	     16.71538480	    -18.04821185	     39.06340343	     66.30286625	     72.19004826	     -9.53171714	    -10.32972806
      0.82352941	      7.42342029	     -5.52267651	     95.29580156	      0.45605776	      0.77694983	      0.68731606	      0.75600235	      2.67095191	      6.17806320	      0.55375557	      0.00966486	     17.68128346	     -8.61599739	      0.00000000	      5.71237572	     -2.79803950	     16.74843365	      8.00910390	      0.13978523	     24.49345645	     -6.87933247	      0.00000000	      0.17740376	      0.36513201	      0.52173612	      0.32945652	      0.48562557	      0.55434463	      0.29145664	      0.88778196	      0.55434463	      0.20275476	      0.88778196	      0.45651910	      0.16473713	      0.74457719	      0.42391060	      0.10136851	      0.56558948	      0.39130209	      1.26717732	      4.13044628	      2.90173977	      0.00000000	      0.00000000	     25.93518521	     -4.99447833	    -16.41578910	     -3.27761290	    -22.56422375	      9.74736651	     84.16387573	     85.48248586	      2.59251611	      1.75223884	     15.72679417	    -17.67311558	     32.91097192	     69.43164790	     75.85112543	     -2.97651677	     -3.12816252
      0.84313725	      7.18685955	     -5.70884804	     94.41478185	      0.45719688	      0.77718233	      0.68499764	      0.86887043	      2.42316307	      7.63661142	      0.62432420	      0.01089651	     17.14711751	     -9.21102168	      0.00000000	      6.00544174	     -2.52378934	     15.62225284	      8.77344296	      0.15312547	     24.58744589	     -7.15520293	      0.00000000	      0.19789455	      0.33542471	      0.59618418	      0.36750997	      0.44611486	      0.63344570	      0.32512096	      0.81555163	      0.63344570	      0.22617368	      0.81555163	      0.52166116	      0.18376488	      0.68399806	      0.48439965	      0.11307695	      0.51957287	      0.44713814	      1.41354100	      3.79439136	      3.31579758	      0.00000000	      0.00000000	     26.17079179	     -4.98710649	    -16.41150937	     -2.85015288	    -23.12184589	      8.62418524	     85.96241432	     87.43253498	      5.72594051	      3.20128130	     15.46331305	    -17.69367714	     29.66005721	     72.03400538	     74.56477659	      0.19918024	      1.99990901
      0.86274510	      7.00369879	     -5.89800454	     93.35423222	      0.45845704	      0.77746471	      0.68258980	      0.99460795	      2.24334796	     10.13970836	      0.67669990	      0.01181064	     16.18971068	    -11.13953349	      0.00000000	      6.28908272	     -2.33159546	     14.26844559	      9.56718022	      0.16697879	     24.64337798	     -7.32906086	      0.00000000	      0.21784228	      0.31386420	      0.65885573	      0.40455489	      0.41743938	      0.70003422	      0.35789308	      0.76312941	      0.70003422	      0.24897194	      0.76312941	      0.57649877	      0.20228834	      0.64003187	      0.53532028	      0.12447508	      0.48617564	      0.49414180	      1.55602560	      3.55049456	      3.66435792	      0.00000000	      0.00000000	     26.21139758	     -4.82947919	    -16.04678037	     -1.87248131	    -23.72569541	      8.27328272	     87.12931817	     88.44669248	      8.80388060	      4.29165289	     14.79672571	    -17.39494083	     25.98866823	     74.28476957	     74.85536238	      3.48191525	      6.63432836
      0.88235294	      6.81296390	     -5.97128167	     92.03012586	      0.46004735	      0.77801512	      0.68002497	      1.00517548	      2.05882751	     11.95747857	      0.73075207	      0.01275403	     15.66408024	    -11.52005794	      0.00000000	      6.31082478	     -2.16678898	     12.97565784	     10.16204783	      0.17736119	     24.27619714	     -8.07069401	      0.00000000	      0.22077068	      0.29258845	      0.78196672	      0.40999324	      0.38914264	      0.83083964	      0.36270416	      0.71139955	      0.83083964	      0.25231882	      0.71139955	      0.68422088	      0.20500766	      0.59664636	      0.63534796	      0.12614837	      0.45321951	      0.58647504	      1.57694292	      3.30981904	      4.34906430	      0.00000000	      0.00000000	     25.97473562	     -4.46509780	    -15.60167872	     -0.73906719	    -24.30812427	      8.45140953	     87.83085232	     88.99385021	      9.84836072	      4.25883274	     14.20141698	    -17.38477032	     23.73289968	     76.59255875	     74.21669149	      3.77868639	     10.56723844
      0.90196078	      6.65899407	     -6.02256259	     90.60165185	      0.46189657	      0.77870754	      0.67758463	      0.99063672	      1.91995878	     14.03690945	      0.75743381	      0.01321971	     14.94760729	    -12.12003179	      0.00000000	      6.22306739	     -2.09426926	     11.47062896	     10.57206697	      0.18451738	     23.68888817	     -8.72506272	      0.00000000	      0.22038579	      0.27615603	      0.91198981	      0.40927844	      0.36728752	      0.96898918	      0.36207181	      0.67144577	      0.96898918	      0.25187891	      0.67144577	      0.79799109	      0.20465024	      0.56313737	      0.74099172	      0.12592844	      0.42776569	      0.68399236	      1.57419363	      3.12393222	      5.07221374	      0.00000000	      0.00000000	     25.48874848	     -3.99316546	    -15.02450134	      0.61214565	    -24.72684946	      9.25262692	     87.95559284	     89.23268009	      8.41365547	      2.91033331	     13.32985160	    -17.44687038	     21.81516975	     78.75663400	     74.59412800	      3.04585732	     12.79356062
      0.92156863	      6.52490763	     -6.01054036	     89.10854925	      0.46404096	      0.77958582	      0.67536263	      0.92316014	      1.81464409	     15.70350506	      0.78423541	      0.01368749	     14.37568860	    -12.12820869	      0.00000000	      5.97836382	     -2.08139398	      9.80602702	     10.77465855	      0.18805327	     22.93773395	     -9.36340475	      0.00000000	      0.20443141	      0.26178087	      1.09201735	      0.37964957	      0.34816856	      1.16026844	      0.33586036	      0.63649401	      1.16026844	      0.23364466	      0.63649401	      0.95551518	      0.18983501	      0.53382355	      0.88726410	      0.11681211	      0.40549857	      0.81901301	      1.46023311	      2.96131757	      6.07347290	      0.00000000	      0.00000000	     24.98405773	     -3.55770553	    -14.41677137	      1.78676958	    -24.81698964	      9.80194726	     87.88167311	     89.31385879	      5.76828454	      1.18187935	     12.55082995	    -17.59226127	     20.50760501	     80.64868340	     75.51480835	      1.92528953	     13.91521398
      0.94117647	      6.31833067	     -6.21301691	     87.81045670	      0.46596252	      0.78025735	      0.67318071	      1.08233172	      1.62730296	     17.20515392	      0.81498523	      0.01422418	     13.66580042	    -12.08024091	      0.00000000	      5.92020098	     -1.98998213	      8.32013330	     10.82544626	      0.18893968	     22.11755889	     -9.91301163	      0.00000000	      0.21235576	      0.24039918	      1.25219926	      0.39436588	      0.31973091	      1.33046171	      0.34887928	      0.58450656	      1.33046171	      0.24270140	      0.58450656	      1.09567435	      0.19719356	      0.49022200	      1.01741190	      0.12134008	      0.37237833	      0.93914944	      1.51683595	      2.71944358	      6.96435660	      0.00000000	      0.00000000	     24.82121741	     -3.13701076	    -13.79649862	      2.65699211	    -24.51788196	      9.80628114	     87.96005116	     89.30076604	      3.28626537	      0.23540340	     11.54521940	    -17.71290540	     19.11474385	     82.45136971	     76.51094367	      1.37147484	     14.01703536
      0.96078431	      6.22637000	     -6.49024159	     86.94671041	      0.46730486	      0.78082471	      0.67155645	      1.30957866	      1.56421471	     18.58465314	      0.82073838	      0.01432459	     12.75332690	    -12.47977148	      0.00000000	      6.03342491	     -1.99039815	      7.11901604	     10.87691080	      0.18983791	     21.49258512	    -10.35876431	      0.00000000	      0.21060166	      0.23708650	      1.35258534	      0.39110835	      0.31532504	      1.43712193	      0.34599748	      0.57645210	      1.43712193	      0.24069664	      0.57645210	      1.18351217	      0.19556471	      0.48346678	      1.09897559	      0.12033779	      0.36724698	      1.01443901	      1.50430663	      2.68196985	      7.52267390	      0.00000000	      0.00000000	     25.10993122	     -2.74517188	    -12.73608812	      3.42464219	    -24.25034445	      9.47405659	     88.32674969	     89.19468094	      1.44224684	      0.18955470	     10.63210294	    -17.68688689	     17.63137890	     84.21553413	     77.55195954	      1.33068215	     14.05549166
      0.98039216	      6.19331940	     -6.86216635	     86.41146695	      0.46821419	      0.78129134	      0.67048409	      1.63456984	      1.56627870	     20.35894609	      0.79292590	      0.01383917	     11.47846516	    -13.89184893	      0.00000000	      6.29170951	     -2.04609507	      6.15366725	     10.86922365	      0.18970374	     21.06059326	    -10.66785567	      0.00000000	      0.20605604	      0.24571611	      1.36260856	      0.38266666	      0.32680243	      1.44777160	      0.33852946	      0.59743416	      1.44777160	      0.23550144	      0.59743416	      1.19228249	      0.19134363	      0.50106430	      1.10711946	      0.11774042	      0.38061426	      1.02195642	      1.47183765	      2.77958982	      7.57842005	      0.00000000	      0.00000000	     25.78103845	     -2.28275097	    -11.13556026	      4.34947978	    -24.10760233	      9.20463941	     88.89428103	     88.92447976	      0.96988803	      1.36566084	      9.62301986	    -17.50374949	     15.64582532	     86.14882054	     78.41430845	      1.82812186	     14.60294334
